<?xml version="1.0" encoding="utf-8"?>
<!-- Generator: Adobe Illustrator 20.1.0, SVG Export Plug-In . SVG Version: 6.00 Build 0)  -->
<svg version="1.1" id="Layer_1" xmlns="http://www.w3.org/2000/svg" xmlns:xlink="http://www.w3.org/1999/xlink" x="0px" y="0px"
	 width="2128px" height="150px" viewBox="0 0 2128 150" style="enable-background:new 0 0 2128 150;" xml:space="preserve">
<style type="text/css">
	.st0{fill:#3760AA;}
	.st1{fill:#FFDA28;}
	.st2{fill:#F6A11C;}
	.st3{opacity:0.15;fill:#FFFFFF;enable-background:new    ;}
	.st4{fill:#3860AA;}
	.st5{fill:#FFFFFF;}
	.st6{fill:#F2F4F9;}
	.st7{fill:#60C4E5;}
	.st8{fill:#39BEEA;}
	.st9{opacity:0.2;fill:#132E3E;enable-background:new    ;}
	.st10{fill:#353738;stroke:#B3B2B2;stroke-miterlimit:10;}
	.st11{fill:#3CBFF0;stroke:#2A4B9B;stroke-miterlimit:10;}
</style>
<g>
	<circle class="st0" cx="76" cy="75" r="75"/>
	<g>
		<circle class="st1" cx="74.3" cy="74.1" r="43.5"/>
		<path class="st1" d="M38.5,34.5l-3.9,3.9c-2,2-2,5.4,0,7.5l3.9,3.9c3.1-4.5,7-8.3,11.3-11.3L46,34.5C44,32.4,40.6,32.4,38.5,34.5z
			 M110,34.5c-2-2-5.4-2-7.5,0l-3.7,3.7c4.5,3.1,8.3,7,11.3,11.3l3.9-3.9c2-2,2-5.4,0-7.5L110,34.5z M77.1,20.8h-5.6
			c-2.9,0-5.2,2.4-5.2,5.2v5.5c2.6-0.5,5.2-0.7,8-0.7c2.7,0,5.5,0.2,8.1,0.7V26C82.4,23.2,80,20.8,77.1,20.8z M26.2,66.2
			c-2.9,0-5.2,2.4-5.2,5.2V77c0,2.9,2.4,5.2,5.2,5.2h5.5c-0.5-2.6-0.7-5.4-0.7-8.1s0.2-5.5,0.7-8.1h-5.5V66.2z M110.1,98.7
			c-3,4.5-7,8.3-11.3,11.3l3.9,3.9c2,2,5.4,2,7.5,0l4-4c2-2,2-5.4,0-7.5L110.1,98.7z M122.5,66.2H117c0.5,2.6,0.7,5.4,0.7,8.1
			c0,2.7-0.2,5.5-0.7,8.1h5.5c2.9,0,5.2-2.4,5.2-5.2v-5.6C127.7,68.5,125.3,66.2,122.5,66.2z M38.4,98.7l-3.7,3.9c-2,2-2,5.4,0,7.5
			l4,4c2,2,5.4,2,7.5,0l3.9-3.9C45.4,107,41.5,103.2,38.4,98.7z M66.3,116.9v5.5c0,2.9,2.4,5.2,5.2,5.2h5.6c2.9,0,5.2-2.4,5.2-5.2
			v-5.5c-2.6,0.5-5.2,0.7-8.1,0.7C71.5,117.6,68.9,117.4,66.3,116.9z"/>
		<path class="st2" d="M66.3,29.3v2.2c2.6-0.5,5.2-0.7,8-0.7c2.7,0,5.5,0.2,8.1,0.7v-2.2c-2.6-0.5-5.4-0.7-8.1-0.7
			C71.5,28.5,68.9,28.8,66.3,29.3z M110.1,49.7l1.6-1.6c-3.1-4.5-7-8.3-11.3-11.3l-1.6,1.5C103.3,41.4,107.1,45.2,110.1,49.7z
			 M29.4,66.2c-0.5,2.6-0.7,5.4-0.7,8.1c0,2.7,0.2,5.5,0.7,8.1h2.2c-0.5-2.7-0.7-5.5-0.7-8.2s0.2-5.5,0.7-8.1h-2.2V66.2z M98.8,110
			l1.6,1.6c4.5-3.1,8.3-7,11.3-11.3l-1.6-1.6C107.1,103.2,103.3,107,98.8,110z M119.2,66.2H117c0.5,2.6,0.7,5.4,0.7,8.1
			c0,2.7-0.2,5.5-0.7,8.1h2.2c0.5-2.6,0.7-5.4,0.7-8.1C120,71.5,119.7,68.8,119.2,66.2z M66.3,116.9v2.2c2.6,0.5,5.4,0.7,8.1,0.7
			c2.7,0,5.5-0.2,8.1-0.7v-2.2c-2.6,0.5-5.2,0.7-8.1,0.7C71.5,117.6,68.9,117.4,66.3,116.9z M38.4,98.7l-1.6,1.6
			c3.1,4.5,7,8.3,11.3,11.3l1.6-1.6C45.4,107,41.5,103.2,38.4,98.7z M36.9,48.1l1.6,1.6c3.1-4.5,7-8.3,11.3-11.3l-1.6-1.6
			C43.7,39.7,39.9,43.6,36.9,48.1z"/>
		<path class="st3" d="M102.7,34.5l-3.9,3.7c-4.9-3.4-10.5-5.6-16.4-6.9V26c0-2.9-2.4-5.2-5.2-5.2h-5.6c-2.9,0-5.2,2.4-5.2,5.2v5.5
			c-6,1.1-11.6,3.5-16.4,6.9L46,34.5c-2-2-5.4-2-7.5,0l-3.9,3.9c-2,2-2,5.4,0,7.5l3.9,3.9c-3.4,4.9-5.6,10.5-6.9,16.4h-5.5
			c-2.9,0-5.2,2.4-5.2,5.2V77c0,2.9,2.4,5.2,5.2,5.2h5.5c1.1,6,3.5,11.6,6.9,16.4l-3.9,3.9c-2,2-2,5.4,0,7.5l2.2,2.2l75.5-75.5
			l-2.4-2.2C108,32.4,104.7,32.4,102.7,34.5z"/>
	</g>
</g>
<g>
	<circle class="st4" cx="228" cy="75" r="75"/>
	<g>
		<path class="st5" d="M231.2,29.7c-13.2,0-24.3,8.6-28.3,20.6c-7.5,1.6-13.5,6.9-16.2,13.8c-10,0.4-18.1,8.6-18.1,18.7
			s8,18.3,17.9,18.7l0,0h44.9V29.7C231.5,29.7,231.4,29.7,231.2,29.7z"/>
		<path class="st6" d="M260.8,55.7c-1.7-14.6-14.1-25.9-29.2-26v71.6h28.3l0,0c12.2-0.5,21.8-10.5,21.8-22.8
			C281.8,66.4,272.5,56.6,260.8,55.7z"/>
	</g>
</g>
<g>
	<circle class="st4" cx="380" cy="75" r="75"/>
	<g>
		<g>
			<path class="st5" d="M386.2,28.3c-13.2,0-24.3,8.6-28.3,20.6c-7.5,1.6-13.5,6.9-16.2,13.8c-10,0.4-18.1,8.6-18.1,18.7
				s8,18.3,17.9,18.7l0,0h44.9V28.3C386.5,28.3,386.4,28.3,386.2,28.3z"/>
			<path class="st6" d="M415.6,54.3c-1.7-14.6-14.1-25.9-29.2-26v71.6h28.3l0,0c12.2-0.5,21.8-10.5,21.8-22.8
				C436.7,65.2,427.5,55.3,415.6,54.3z"/>
		</g>
		<g>
			<path class="st7" d="M419.6,89.3l-18.1,4.9l-1.5,0.5c-1.7,0.6-3.5,1.6-4.9,3c-4.9,4.9-4.9,12.7,0,17.6l25.7-25.7
				C420.5,89.3,420.1,89.2,419.6,89.3z"/>
			<path class="st8" d="M415.8,110.4l0.4-1.5l4.9-18.1c0.1-0.5,0-1-0.2-1.2l-25.7,25.7c4.9,4.9,12.7,4.9,17.6,0
				C414.1,113.9,415.1,112.1,415.8,110.4z"/>
		</g>
		<path class="st9" d="M421,90.8l-2.4,8.6c3-0.6,5.9-1.9,8.3-3.6l-6.2-6.2C421,89.8,421.1,90.2,421,90.8z"/>
		<g>
			<path class="st7" d="M365.5,109.6l-4.4-2.5l3.7-1c0.2,0,0.4-0.2,0.2-0.5l-0.6-2.2c0-0.2-0.2-0.4-0.5-0.2l-6.7,1.7l-5.6-3.2
				l5.6-3.2l6.9,1.9c0.2,0,0.4-0.1,0.5-0.2l0.6-2.2c0-0.2-0.1-0.4-0.2-0.5l-3.7-1l4.4-2.5c0.1-0.1,0.2-0.4,0.1-0.5l-1.1-2
				c-0.1-0.1-0.4-0.2-0.5-0.1l-4.4,2.5l1-3.7c0-0.2-0.1-0.4-0.2-0.5l-2.2-0.6c-0.2,0-0.4,0.1-0.5,0.2l-1.9,6.9l-5.5,3.2v-6.1l5-5
				c0.1-0.1,0.1-0.4,0-0.5l-1.9-1.9c-0.1-0.1-0.4-0.1-0.5,0l-2.9,2.7v-5.4c0-0.2-0.1-0.4-0.4-0.4h-2.4c-0.2,0-0.4,0.1-0.4,0.4v5.4
				l-2.7-2.7c-0.1-0.1-0.4-0.1-0.5,0l-1.6,1.6c-0.1,0.1-0.1,0.4,0,0.5l5,5v6.1l-5.4-3l-1.9-6.9c0-0.2-0.2-0.4-0.5-0.2l-2.2,0.6
				c-0.2,0-0.4,0.2-0.2,0.5l1,3.7l-4.6-2.6c-0.1-0.1-0.4,0-0.5,0.1l-1.1,2c-0.1,0.1,0,0.4,0.1,0.5l4.6,2.6l-3.7,1
				c-0.2,0-0.4,0.2-0.2,0.5l0.6,2.2c0,0.2,0.2,0.4,0.5,0.2l6.9-1.9l5.2,3.1l-5.2,3.1l-6.9-1.9c-0.2,0-0.4,0.1-0.5,0.2l-0.7,2.4
				c0,0.2,0.1,0.4,0.2,0.5l3.7,1l-4.5,2.7c-0.1,0.1-0.2,0.4-0.1,0.5l1.1,2c0.1,0.1,0.4,0.2,0.5,0.1l4.6-2.6l-1,3.7
				c0,0.2,0.1,0.4,0.2,0.5l2.2,0.6c0.2,0,0.4-0.1,0.5-0.2l1.9-6.9l5.2-3.1v6.4l-5,5c-0.1,0.1-0.1,0.4,0,0.5l1.6,1.6
				c0.1,0.1,0.4,0.1,0.5,0l2.7-2.7v5c0,0.2,0.1,0.4,0.4,0.4h2.5c0.2,0,0.4-0.1,0.4-0.4v-5l2.7,2.7c0.1,0.1,0.4,0.1,0.5,0l1.6-1.6
				c0.1-0.1,0.1-0.4,0-0.5l-5-5v-6.4l5.5,3.2l1.9,6.9c0,0.2,0.2,0.4,0.5,0.2l2.2-0.6c0.2,0,0.4-0.2,0.2-0.5l-1-3.7l4.4,2.5
				c0.1,0.1,0.4,0,0.5-0.1l1.1-2C365.8,109.9,365.7,109.6,365.5,109.6z"/>
			<path class="st9" d="M357.5,89.6l-2.1-2.1l0,0c0.1,0.1,0.1,0.2,0,0.4l-5,5v6.1l5.5-3.2L357.5,89.6z M337.4,99.4
				c1.2,0.4,2.6,0.5,3.9,0.6l0,0h1.2l-2.4-1.4L337.4,99.4z M341.9,95.9l5.2,3.1v-2.7l-7.1-7.1L341.9,95.9z M350.2,88.5l2.7-2.7
				l-2.7-2.7c0,0,0,0,0,0.1V88.5z M373.3,99.9l-8.8-8.8l1.1,2c0.1,0.1,0,0.4-0.1,0.5l-4.4,2.5l3.7,1c0.2,0,0.4,0.2,0.2,0.5l-0.6,2.2
				h8.8V99.9z M362.8,91.7l-2.2-2.2l0,0c0.1,0.1,0.1,0.2,0.1,0.4l-1,3.7L362.8,91.7z M354.7,99.9h8.2l-5.6-1.5L354.7,99.9z"/>
		</g>
	</g>
</g>
<g>
	<circle class="st4" cx="532" cy="75" r="75"/>
	<g>
		<path class="st5" d="M538.2,30.8c-13.2,0-24.3,8.6-28.3,20.6c-7.5,1.6-13.5,6.9-16.2,13.8c-10,0.4-18.1,8.6-18.1,18.7
			s8,18.3,17.9,18.7l0,0h44.9V30.8C538.5,30.8,538.4,30.8,538.2,30.8z"/>
		<path class="st6" d="M567.6,56.8c-1.7-14.6-14.1-25.9-29.2-26v71.6h28.3l0,0c12.2-0.5,21.8-10.5,21.8-22.8
			C588.7,67.6,579.5,57.8,567.6,56.8z"/>
	</g>
	<g>
		<g>
			<path class="st7" d="M529.9,88.7c0,0.7-0.6,1.2-1.2,1.2h-41.5c-0.7,0-1.2-0.6-1.2-1.2V86c0-0.7,0.6-1.2,1.2-1.2h41.5
				c0.7,0,1.2,0.6,1.2,1.2V88.7z"/>
		</g>
		<g>
			<path class="st7" d="M491.4,117.2c0-0.7,0.6-1.2,1.2-1.2h41.5c0.7,0,1.2,0.6,1.2,1.2v2.7c0,0.7-0.6,1.2-1.2,1.2h-41.4
				c-0.7,0-1.2-0.6-1.2-1.2v-2.7H491.4z"/>
		</g>
		<g>
			<path class="st7" d="M561.5,104c0,0.7-0.6,1.2-1.2,1.2H533c-0.7,0-1.2-0.6-1.2-1.2v-2.7c0-0.7,0.6-1.2,1.2-1.2h27.2
				c0.7,0,1.2,0.6,1.2,1.2v2.7H561.5z"/>
		</g>
		<g>
			<path class="st7" d="M545.7,117.2c0-0.7,0.6-1.2,1.2-1.2h27.2c0.7,0,1.2,0.6,1.2,1.2v2.7c0,0.7-0.6,1.2-1.2,1.2H547
				c-0.7,0-1.2-0.6-1.2-1.2V117.2z"/>
		</g>
		<g>
			<path class="st7" d="M499.7,104c0,0.6,0.5,1.2,1.2,1.2h16.4c0.6,0,1.2-0.5,1.2-1.2v-2.9c0-0.6-0.5-1.2-1.2-1.2H501
				c-0.6,0-1.2,0.5-1.2,1.2V104z"/>
		</g>
		<g>
			<path class="st7" d="M561.7,88.7c0,0.6,0.5,1.2,1.2,1.2h16.4c0.6,0,1.2-0.5,1.2-1.2v-2.9c0-0.6-0.5-1.2-1.2-1.2h-16.4
				c-0.6,0-1.2,0.5-1.2,1.2V88.7z"/>
		</g>
		<g>
			<path class="st7" d="M541,88.7c0,0.6,0.5,1.2,1.2,1.2h4.6c0.6,0,1.2-0.5,1.2-1.2v-2.9c0-0.6-0.5-1.2-1.2-1.2h-4.6
				c-0.6,0-1.2,0.5-1.2,1.2V88.7z"/>
		</g>
	</g>
	<path class="st9" d="M548.1,85.8v2.9c0,0.6-0.5,1.2-1.2,1.2h-4.6c-0.4,0-0.6-0.1-0.9-0.4l10.3,10.3h8.6c0.7,0,1.2,0.6,1.2,1.2v1.2
		h3.6l-17.3-17.2C547.9,85.3,548.1,85.6,548.1,85.8z M529.9,85.8v2.7c0,0.7-0.6,1.2-1.2,1.2h-41.5c-0.4,0-0.6-0.1-0.9-0.4l0,0
		l12.8,12.8h0.7V101c0-0.6,0.5-1.2,1.2-1.2h16.4c0.6,0,1.2,0.5,1.2,1.2v1.2h13V101c0-0.7,0.6-1.2,1.2-1.2h11.3l-14.7-14.6
		C529.8,85.3,529.9,85.6,529.9,85.8z M541.2,89.6L541.2,89.6L541.2,89.6L541.2,89.6z M580.3,85.2L580.3,85.2
		c0.1,0.2,0.2,0.4,0.2,0.6v2.9c0,0.6-0.5,1.2-1.2,1.2h-16.4c-0.2,0-0.5-0.1-0.7-0.2l0,0l11.5,11.5c5.2-1.9,9.6-5.6,12.3-10.5
		L580.3,85.2z"/>
</g>
<g>
	<circle class="st4" cx="684" cy="75" r="75"/>
	<g>
		<circle class="st1" cx="684" cy="71.5" r="31.6"/>
		<path class="st1" d="M657.9,42.6l-2.9,2.9c-1.4,1.4-1.4,4,0,5.4l2.9,2.9c2.2-3.2,5.1-6,8.3-8.3l-2.9-2.9
			C661.9,41.1,659.4,41.1,657.9,42.6z M710.1,42.6c-1.4-1.4-4-1.4-5.4,0l-2.9,2.9c3.2,2.2,6,5.1,8.3,8.3l2.9-2.9
			c1.4-1.4,1.4-4,0-5.4L710.1,42.6z M686.1,32.6h-4.1c-2.1,0-3.8,1.7-3.8,3.8v4c1.9-0.3,3.8-0.6,5.9-0.6s4,0.2,5.9,0.6v-4
			C689.9,34.3,688.1,32.6,686.1,32.6z M648.9,65.6c-2.1,0-3.8,1.7-3.8,3.8v4.1c0,2.1,1.7,3.8,3.8,3.8h4c-0.3-1.9-0.6-3.8-0.6-5.9
			s0.2-4,0.6-5.9H648.9z M710.2,89.5c-2.2,3.2-5.1,6-8.3,8.3l2.9,2.9c1.4,1.4,4,1.4,5.4,0l2.9-2.9c1.4-1.4,1.4-4,0-5.4L710.2,89.5z
			 M719.1,65.6h-4c0.3,1.9,0.6,3.8,0.6,5.9s-0.2,4-0.6,5.9h4c2.1,0,3.8-1.7,3.8-3.8v-4.1C723,67.4,721.2,65.6,719.1,65.6z
			 M657.8,89.5l-2.9,2.9c-1.4,1.4-1.4,4,0,5.4l2.9,2.9c1.4,1.4,4,1.4,5.4,0l2.9-2.9C662.9,95.5,660,92.7,657.8,89.5z M678.1,102.7v4
			c0,2.1,1.7,3.8,3.8,3.8h4.1c2.1,0,3.8-1.7,3.8-3.8v-4c-1.9,0.3-3.8,0.6-5.9,0.6S680,103,678.1,102.7z"/>
		<path class="st2" d="M678.1,38.8v1.6c1.9-0.3,3.8-0.6,5.9-0.6s4,0.2,5.9,0.6v-1.6c-1.9-0.3-3.8-0.5-5.9-0.5S680,38.4,678.1,38.8z
			 M710.2,53.7l1.1-1.1c-2.2-3.2-5.1-6-8.3-8.3l-1.1,1.1C705.1,47.7,708,50.5,710.2,53.7z M651.2,65.6c-0.3,1.9-0.5,3.8-0.5,5.9
			s0.2,4,0.5,5.9h1.6c-0.3-1.9-0.6-3.8-0.6-5.9s0.2-4,0.6-5.9H651.2z M701.8,97.8l1.1,1.1c3.2-2.2,6-5.1,8.3-8.3l-1.1-1.1
			C708,92.7,705.1,95.5,701.8,97.8z M716.8,65.6h-1.6c0.3,1.9,0.6,3.8,0.6,5.9s-0.2,4-0.6,5.9h1.6c0.3-1.9,0.5-3.8,0.5-5.9
			S717.1,67.5,716.8,65.6z M678.1,102.7v1.6c1.9,0.3,3.8,0.5,5.9,0.5s4-0.2,5.9-0.5v-1.6c-1.9,0.3-3.8,0.6-5.9,0.6
			S680,103,678.1,102.7z M657.8,89.5l-1.1,1.1c2.2,3.2,5.1,6,8.3,8.3l1.1-1.1C662.9,95.5,660,92.7,657.8,89.5z M656.6,52.6l1.1,1.1
			c2.2-3.2,5.1-6,8.3-8.3l-1.1-1.1C661.7,46.6,658.9,49.3,656.6,52.6z"/>
		<path class="st3" d="M704.7,42.6l-2.9,2.9c-3.5-2.4-7.6-4.1-11.9-4.9v-4c0-2.1-1.7-3.8-3.8-3.8h-4.1c-2.1,0-3.8,1.7-3.8,3.8v4
			c-4.5,0.8-8.4,2.5-11.9,4.9l-2.9-2.9c-1.4-1.4-4-1.4-5.4,0l-2.9,2.9c-1.4,1.4-1.4,4,0,5.4l2.9,2.9c-2.4,3.5-4.1,7.6-4.9,11.9h-4
			c-2.1,0-3.8,1.7-3.8,3.8v4.1c0,2.1,1.7,3.8,3.8,3.8h4c0.8,4.5,2.5,8.4,4.9,11.9l-2.9,2.9c-1.4,1.4-1.4,4,0,5.4l1.6,1.6l55-55
			l-1.6-1.6C708.6,41.1,706.1,41.1,704.7,42.6z"/>
	</g>
	<g>
		<path class="st5" d="M672.9,77.1c-9,0-16.7,5.9-19.3,14.1c-5.1,1.1-9.2,4.7-11.1,9.5c-6.9,0.2-12.3,5.9-12.3,12.7
			c0,6.9,5.5,12.5,12.3,12.7l0,0h30.6v-49C673,77.1,672.9,77.1,672.9,77.1z"/>
		<path class="st6" d="M692.9,95c-1.2-10-9.6-17.7-19.9-17.8v49h19.3l0,0c8.3-0.4,15-7.2,15-15.6C707.4,102.3,701,95.6,692.9,95z"/>
	</g>
	<g>
		<path class="st5" d="M705.8,21.9c-9.1,0-16.8,6-19.6,14.2c-5.1,1.1-9.4,4.8-11.2,9.5c-6.9,0.3-12.5,5.9-12.5,12.9
			c0,6.9,5.5,12.6,12.5,12.9l0,0h31.1V21.9C706,21.9,706,21.9,705.8,21.9z"/>
		<path class="st6" d="M726.3,40c-1.2-10-9.7-17.9-20.2-18v49.6h19.6l0,0c8.5-0.3,15.1-7.2,15.1-15.7
			C740.8,47.5,734.4,40.7,726.3,40z"/>
	</g>
</g>
<g>
	<circle class="st4" cx="836" cy="75" r="75"/>
	<g>
		<circle class="st1" cx="840.6" cy="62.3" r="35.9"/>
		<path class="st1" d="M811.2,29.6l-3.2,3.2c-1.7,1.7-1.7,4.5,0,6.2l3.1,3.1c2.5-3.7,5.7-6.8,9.4-9.4l-3.1-3.1
			C815.6,27.9,812.8,27.9,811.2,29.6z M870.1,29.6c-1.7-1.7-4.5-1.7-6.2,0l-3.1,3.1c3.7,2.5,6.8,5.7,9.4,9.4l3.1-3.1
			c1.7-1.7,1.7-4.5,0-6.2L870.1,29.6z M843,18.2h-4.6c-2.4,0-4.4,1.9-4.4,4.4v4.5c2.1-0.4,4.4-0.7,6.6-0.7s4.5,0.2,6.6,0.7v-4.5
			C847.2,20.3,845.3,18.2,843,18.2z M801,55.7c-2.4,0-4.4,1.9-4.4,4.4v4.5c0,2.4,1.9,4.4,4.4,4.4h4.5c-0.3-2.1-0.6-4.4-0.6-6.6
			s0.2-4.5,0.7-6.6H801z M870.2,82.5c-2.5,3.7-5.7,6.8-9.4,9.4l3.1,3.1c1.7,1.7,4.5,1.7,6.2,0l3.2-3.2c1.7-1.7,1.7-4.5,0-6.2
			L870.2,82.5z M880.3,55.7h-4.5c0.4,2.1,0.7,4.4,0.7,6.6s-0.2,4.5-0.7,6.6h4.5c2.4,0,4.4-1.9,4.4-4.4v-4.6
			C884.7,57.6,882.7,55.7,880.3,55.7z M811,82.5l-3.1,3.1c-1.7,1.7-1.7,4.5,0,6.2l3.2,3.2c1.7,1.7,4.5,1.7,6.2,0l3.1-3.1
			C816.8,89.3,813.6,86.2,811,82.5z M834,97.5v4.5c0,2.4,1.9,4.4,4.4,4.4h4.6c2.4,0,4.4-1.9,4.4-4.4v-4.5c-2.1,0.4-4.4,0.7-6.6,0.7
			C838.4,98.1,836.1,97.8,834,97.5z"/>
		<path class="st2" d="M834,25.2v1.9c2.1-0.4,4.4-0.7,6.6-0.7s4.5,0.2,6.6,0.7v-1.9c-2.1-0.3-4.4-0.7-6.6-0.7
			C838.4,24.6,836.1,24.9,834,25.2z M870.2,42.1l1.3-1.3c-2.6-3.7-5.7-6.8-9.4-9.4l-1.3,1.3C864.5,35.3,867.7,38.4,870.2,42.1z
			 M803.6,55.7c-0.4,2.1-0.7,4.4-0.7,6.6s0.2,4.5,0.7,6.6h1.8c-0.3-2.1-0.6-4.4-0.6-6.6s0.2-4.5,0.7-6.6H803.6z M860.8,91.9l1.3,1.3
			c3.7-2.6,6.8-5.7,9.4-9.4l-1.3-1.3C867.7,86.2,864.5,89.3,860.8,91.9z M877.7,55.7h-1.9c0.4,2.1,0.7,4.4,0.7,6.6s-0.2,4.5-0.7,6.6
			h1.9c0.3-2.1,0.6-4.4,0.6-6.6S878.1,57.8,877.7,55.7z M834,97.5v1.8c2.1,0.3,4.4,0.7,6.6,0.7s4.5-0.2,6.6-0.7v-1.9
			c-2.1,0.4-4.4,0.7-6.6,0.7C838.4,98.1,836.1,97.8,834,97.5z M811,82.5l-1.3,1.3c2.6,3.7,5.7,6.8,9.4,9.4l1.3-1.3
			C816.8,89.3,813.6,86.2,811,82.5z M809.8,40.8l1.2,1.3c2.5-3.7,5.7-6.8,9.4-9.4l-1.3-1.3C815.5,33.9,812.3,37.1,809.8,40.8z"/>
		<path class="st3" d="M864,29.6l-3.1,3.1c-4-2.7-8.6-4.7-13.6-5.6v-4.5c0-2.4-1.9-4.4-4.4-4.4h-4.6c-2.4,0-4.4,1.9-4.4,4.4v4.5
			c-4.9,0.9-9.5,2.9-13.6,5.6l-3.1-3.1c-1.7-1.7-4.5-1.7-6.2,0l-3.2,3.2c-1.7,1.7-1.7,4.5,0,6.2l3.1,3.1c-2.7,4-4.7,8.6-5.6,13.6
			H801c-2.4,0-4.4,1.9-4.4,4.4v4.5c0,2.4,1.9,4.4,4.4,4.4h4.5c0.9,4.9,2.9,9.5,5.6,13.6l-3.1,3.1c-1.7,1.7-1.7,4.5,0,6.2l1.9,1.9
			L872,31.5l-1.9-1.9C868.4,27.9,865.7,27.9,864,29.6z"/>
	</g>
	<g>
		<path class="st5" d="M824.5,69.1c-9,0-16.6,5.9-19.2,14c-5.1,1.2-9.2,4.7-11.1,9.4c-6.8,0.3-12.3,5.9-12.3,12.7
			c0,6.9,5.5,12.5,12.3,12.8l0,0h30.6V69.1C824.7,69.1,824.6,69.1,824.5,69.1z"/>
		<path class="st6" d="M844.7,86.9c-1.2-9.9-9.6-17.6-19.9-17.7V118h19.3l0,0c8.2-0.4,14.9-7.2,14.9-15.5
			C859,94.2,852.6,87.6,844.7,86.9z"/>
	</g>
</g>
<g>
	<circle class="st4" cx="988" cy="75" r="75"/>
	<g>
		<path class="st5" d="M994.2,23.3c-13.2,0-24.3,8.6-28.3,20.6c-7.5,1.6-13.5,6.9-16.2,13.8c-10,0.4-18.1,8.6-18.1,18.7
			s8,18.3,17.9,18.7l0,0h44.9V23.3C994.5,23.3,994.4,23.3,994.2,23.3z"/>
		<path class="st6" d="M1023.6,49.3c-1.7-14.6-14.1-25.9-29.2-26v71.6h28.3l0,0c12.2-0.5,21.8-10.5,21.8-22.8
			C1044.7,60.2,1035.5,50.3,1023.6,49.3z"/>
		<path class="st7" d="M993.6,119.9l-2.2-1.2l1.9-0.5c0.1,0,0.1-0.1,0.1-0.2l-0.4-1.1c0-0.1-0.1-0.1-0.2-0.1l-3.5,0.9l-2.6-1.6
			l2.9-1.6l3.5,0.9c0.1,0,0.2,0,0.2-0.1l0.4-1.1c0-0.1,0-0.2-0.1-0.2l-1.9-0.5l2.2-1.2c0.1,0,0.1-0.1,0.1-0.2l-0.6-1
			c0-0.1-0.1-0.1-0.2-0.1l-2.2,1.2l0.5-1.9c0-0.1,0-0.2-0.1-0.2l-1.1-0.2c-0.1,0-0.2,0-0.2,0.1L989,113l-2.9,1.6v-3.1l2.5-2.5
			c0.1-0.1,0.1-0.2,0-0.2l-0.9-0.9c-0.1-0.1-0.2-0.1-0.2,0l-1.4,1.4v-2.7c0-0.1-0.1-0.2-0.2-0.2h-1.2c-0.1,0-0.2,0.1-0.2,0.2v2.7
			l-1.4-1.4c-0.1-0.1-0.2-0.1-0.2,0l-0.9,0.9c-0.1,0.1-0.1,0.2,0,0.2l2.5,2.5v3.1l-2.9-1.7l-0.9-3.5c0-0.1-0.1-0.1-0.2-0.1l-1.1,0.4
			c-0.1,0-0.1,0.1-0.1,0.2l0.5,1.9l-2.4-1.4c-0.1,0-0.2,0-0.2,0.1l-0.6,1c0,0.1,0,0.2,0.1,0.2l2.4,1.4l-1.9,0.5
			c-0.1,0-0.1,0.1-0.1,0.2l0.4,1.1c0,0.1,0.1,0.1,0.2,0.1l3.5-0.9l2.7,1.5l-2.7,1.5l-3.5-0.9c-0.1,0-0.2,0-0.2,0.1l-0.4,1.1
			c0,0.1,0,0.2,0.1,0.2l1.9,0.5l-2.4,1.5c-0.1,0-0.1,0.1-0.1,0.2l0.6,1c0,0.1,0.1,0.1,0.2,0.1l2.4-1.4l-0.5,1.9c0,0.1,0,0.2,0.1,0.2
			l1.1,0.2c0.1,0,0.2,0,0.2-0.1l0.9-3.5l2.7-1.5v3.2l-2.5,2.5c-0.1,0.1-0.1,0.2,0,0.2l0.9,0.9c0.1,0.1,0.2,0.1,0.2,0l1.4-1.4v2.6
			c0,0.1,0.1,0.2,0.2,0.2h1.2c0.1,0,0.2-0.1,0.2-0.2v-2.6l1.4,1.4c0.1,0.1,0.2,0.1,0.2,0l0.9-0.9c0.1-0.1,0.1-0.2,0-0.2l-2.5-2.5
			v-3.2l2.9,1.6l0.9,3.5c0,0.1,0.1,0.1,0.2,0.1l1.1-0.2c0.1,0,0.1-0.1,0.1-0.2l-0.5-1.9l2.2,1.2c0.1,0,0.2,0,0.2-0.1l0.6-1
			C993.7,120.1,993.7,120,993.6,119.9z"/>
		<g>
			<path class="st7" d="M973.9,104.7l-4.4-2.5l3.7-1c0.2,0,0.4-0.2,0.2-0.5l-0.6-2.2c0-0.2-0.2-0.4-0.5-0.2l-6.9,1.9l-5.6-3.2
				l5.6-3.2l6.9,1.9c0.2,0,0.4-0.1,0.5-0.2l0.6-2.2c0-0.2-0.1-0.4-0.2-0.5l-3.7-1l4.4-2.5c0.1-0.1,0.2-0.4,0.1-0.5l-1.2-2.2
				c0-0.2-0.2-0.2-0.5-0.1l-4.4,2.5l1-3.7c0-0.2-0.1-0.4-0.2-0.5l-2.2-0.6c-0.2,0-0.4,0.1-0.5,0.2l-1.9,6.9l-5.6,3.2V88l5-5
				c0.1-0.1,0.1-0.4,0-0.5l-1.6-1.6c-0.1-0.1-0.4-0.1-0.5,0l-2.7,2.6v-5.4c0-0.2-0.1-0.4-0.4-0.4h-2.4c-0.2,0-0.4,0.1-0.4,0.4v5.4
				l-2.7-2.7c-0.1-0.1-0.4-0.1-0.5,0l-1.6,1.6c-0.1,0.1-0.1,0.4,0,0.5l5,5v6.1l-5.4-3l-1.9-6.9c0-0.2-0.2-0.4-0.5-0.2l-2.2,0.6
				c-0.2,0-0.4,0.2-0.2,0.5l1,3.7l-4.6-2.6c-0.1-0.1-0.4,0-0.5,0.1l-1.1,2c-0.1,0.1,0,0.4,0.1,0.5l4.6,2.6l-3.7,1
				c-0.2,0-0.4,0.2-0.2,0.5l0.6,2.2c0,0.2,0.2,0.4,0.5,0.2l6.9-1.9l5.2,3.1l-5.2,3.1l-6.9-1.9c-0.2,0-0.4,0.1-0.5,0.2l-0.6,2.2
				c0,0.2,0.1,0.4,0.2,0.5l3.7,1l-4.6,2.9c-0.1,0.1-0.2,0.4-0.1,0.5l1.1,2c0.1,0.1,0.4,0.2,0.5,0.1l4.6-2.6l-1,3.7
				c0,0.2,0.1,0.4,0.2,0.5l2.2,0.6c0.2,0,0.4-0.1,0.5-0.2l1.9-6.9l5.2-3.1v6.4l-5,5c-0.1,0.1-0.1,0.4,0,0.5l1.6,1.6
				c0.1,0.1,0.4,0.1,0.5,0l2.7-2.7v5c0,0.2,0.1,0.4,0.4,0.4h2.4c0.2,0,0.4-0.1,0.4-0.4v-5l2.7,2.7c0.1,0.1,0.4,0.1,0.5,0l1.6-1.6
				c0.1-0.1,0.1-0.4,0-0.5l-5-5v-6.4l5.6,3.2l1.9,6.9c0,0.2,0.2,0.4,0.5,0.2l2.2-0.6c0.2,0,0.4-0.2,0.2-0.5l-1-3.7l4.4,2.5
				c0.1,0.1,0.4,0,0.5-0.1l1.1-2C974.2,104.9,974,104.7,973.9,104.7z"/>
			<path class="st9" d="M965.8,84.6l-2.1-2.1l0,0c0.1,0.1,0.1,0.2,0,0.4l-5,5v6.1l5.6-3.2L965.8,84.6z M945.8,94.4
				c1.2,0.4,2.6,0.5,3.9,0.6l0,0h1.2l-2.4-1.4L945.8,94.4z M950.3,90.9l5.2,3.1v-2.7l-7.1-7.1L950.3,90.9z M958.6,83.5l2.7-2.7
				l-2.7-2.7c0,0,0,0,0,0.1V83.5z M981.6,94.9l-8.8-8.7l1.1,2c0.1,0.1,0,0.4-0.1,0.5l-4.4,2.5l3.7,1c0.2,0,0.4,0.2,0.2,0.5l-0.6,2.2
				C972.8,94.9,981.6,94.9,981.6,94.9z M971.2,86.7l-2.2-2.2l0,0c0.1,0.1,0.1,0.2,0.1,0.4l-1,3.7L971.2,86.7z M963.1,94.9h8.2
				l-5.6-1.5L963.1,94.9z"/>
		</g>
		<path class="st7" d="M1031.9,104.7l-4.4-2.5l3.7-1c0.2,0,0.4-0.2,0.2-0.5l-0.6-2.2c0-0.2-0.2-0.4-0.5-0.2l-6.9,1.9l-5.6-3.2
			l5.6-3.2l6.9,1.9c0.2,0,0.4-0.1,0.5-0.2l0.6-2.2c0-0.2-0.1-0.4-0.2-0.5l-3.7-1l4.4-2.5c0.1-0.1,0.2-0.4,0.1-0.5l-1.1-2
			c-0.1-0.1-0.4-0.2-0.5-0.1l-4.4,2.5l1-3.7c0-0.2-0.1-0.4-0.2-0.5l-2.2-0.6c-0.2,0-0.4,0.1-0.5,0.2l-1.9,6.9l-5.6,3.2v-6.1l5-5
			c0.1-0.1,0.1-0.4,0-0.5l-1.6-1.6c-0.1-0.1-0.4-0.1-0.5,0l-2.9,2.4v-5.4c0-0.2-0.1-0.4-0.4-0.4h-2.4c-0.2,0-0.4,0.1-0.4,0.4v5.4
			l-2.7-2.7c-0.1-0.1-0.4-0.1-0.5,0l-1.6,1.6c-0.1,0.1-0.1,0.4,0,0.5l5,5v6.1l-5.4-3l-1.9-6.9c0-0.2-0.2-0.4-0.5-0.2l-2.2,0.6
			c-0.2,0-0.4,0.2-0.2,0.5l1,3.7l-4.6-2.6c-0.1-0.1-0.4,0-0.5,0.1l-1.1,2c-0.1,0.1,0,0.4,0.1,0.5l4.6,2.6l-3.7,1
			c-0.2,0-0.4,0.2-0.2,0.5l0.6,2.2c0,0.2,0.2,0.4,0.5,0.2l6.9-1.9l5.2,3.1l-5.2,3.1l-6.9-1.9c-0.2,0-0.4,0.1-0.5,0.2l-0.6,2.2
			c0,0.2,0.1,0.4,0.2,0.5l3.7,1l-4.6,2.9c-0.1,0.1-0.2,0.4-0.1,0.5l1.1,2c0.1,0.1,0.4,0.2,0.5,0.1l4.6-2.6l-1,3.7
			c0,0.2,0.1,0.4,0.2,0.5l2.2,0.6c0.2,0,0.4-0.1,0.5-0.2l1.9-6.9l5.2-3.1v6.4l-5,5c-0.1,0.1-0.1,0.4,0,0.5l1.6,1.6
			c0.1,0.1,0.4,0.1,0.5,0l2.7-2.7v5c0,0.2,0.1,0.4,0.4,0.4h2.4c0.2,0,0.4-0.1,0.4-0.4v-5l2.7,2.7c0.1,0.1,0.4,0.1,0.5,0l1.6-1.6
			c0.1-0.1,0.1-0.4,0-0.5l-5-5v-6.4l5.6,3.2l1.9,6.9c0,0.2,0.2,0.4,0.5,0.2l2.2-0.6c0.2,0,0.4-0.2,0.2-0.5l-1-3.7l4.4,2.5
			c0.1,0.1,0.4,0,0.5-0.1l1.1-2C1032.1,104.9,1032,104.7,1031.9,104.7z"/>
		<path class="st9" d="M1021,94.9h1.7l0,0c0.7,0,1.4-0.1,2.1-0.2c0.6-0.1,1.4-0.2,2-0.4l0,0l-3.2-0.9L1021,94.9z M1029.1,86.7
			l-2.2-2.2l0,0c0.1,0.1,0.1,0.2,0.1,0.4l-1,3.7L1029.1,86.7z M1023.8,84.6l-2.1-2.1l0,0c0,0.1,0,0.1,0,0.2c0,0.1,0,0.1-0.1,0.2
			l-5,5v6.1l5.6-3.2L1023.8,84.6z M1001.5,94.9h7.5l-2.4-1.4L1001.5,94.9z M1030.9,86.2l1.1,2c0.1,0.1,0,0.4-0.1,0.5l-4.4,2.5l3.7,1
			c0.2,0,0.4,0.2,0.2,0.5l0,0c0.6-0.2,1.2-0.6,1.9-1l0,0c0.6-0.4,1.2-0.7,1.7-1.1L1030.9,86.2z M1016.5,83.5l2.7-2.7l-2.7-2.7
			c0,0,0,0,0,0.1V83.5z M1008.2,90.9l5.2,3.1v-2.7l-7.1-7.1L1008.2,90.9z"/>
	</g>
</g>
<g>
	<circle class="st4" cx="1140" cy="75" r="75"/>
	<g>
		<g>
			<path class="st5" d="M1146.2,27c-13.2,0-24.3,8.6-28.3,20.6c-7.5,1.6-13.5,6.9-16.2,13.8c-10,0.4-18.1,8.6-18.1,18.7
				s8,18.3,17.9,18.7l0,0h44.9V27C1146.5,27,1146.4,27,1146.2,27z"/>
			<path class="st6" d="M1175.6,53.1c-1.7-14.6-14.1-25.9-29.2-26v71.6h28.3l0,0c12.2-0.5,21.8-10.5,21.8-22.8
				C1196.7,63.9,1187.5,54.1,1175.6,53.1z"/>
		</g>
		<g>
			<path class="st7" d="M1122.2,84.3l-18.1,4.9l-1.6,0.5c-1.7,0.6-3.5,1.6-4.9,3c-4.9,4.9-4.9,12.7,0,17.6l25.7-25.7
				C1123.1,84.3,1122.7,84.2,1122.2,84.3z"/>
			<path class="st8" d="M1118.2,105.4l0.4-1.5l5-18.1c0.1-0.5,0-1-0.2-1.2l-25.7,25.7c4.9,4.9,12.7,4.9,17.6,0
				C1116.7,108.9,1117.7,107.1,1118.2,105.4z"/>
		</g>
		<g>
			<path class="st7" d="M1179.6,88.1l-18.1,4.9l-1.5,0.5c-1.7,0.6-3.5,1.6-4.9,3c-4.9,4.9-4.9,12.7,0,17.6l25.7-25.7
				C1180.5,88.1,1180.1,88,1179.6,88.1z"/>
			<path class="st8" d="M1175.8,109.1l0.4-1.5l4.9-18.1c0.1-0.5,0-1-0.2-1.2l-25.7,25.7c4.9,4.9,12.7,4.9,17.6,0
				C1174.1,112.6,1175.1,110.9,1175.8,109.1z"/>
		</g>
		<g>
			<path class="st7" d="M1140.9,104.7l-11,3l-0.9,0.2c-1.1,0.4-2.1,1-3,1.9c-3,3-3,7.7,0,10.7l15.6-15.6
				C1141.4,104.5,1141.1,104.5,1140.9,104.7z"/>
			<path class="st8" d="M1138.5,117.4l0.2-1l3-11c0.1-0.4,0-0.6-0.1-0.7l-15.7,15.7c3,3,7.7,3,10.7,0
				C1137.5,119.5,1138.1,118.5,1138.5,117.4z"/>
		</g>
		<path class="st9" d="M1123.6,85.8l-3.5,13h17.4l-14.2-14.2C1123.6,84.8,1123.7,85.2,1123.6,85.8z"/>
		<path class="st9" d="M1181,89.6l-2.4,8.6c3-0.6,5.9-1.9,8.3-3.6l-6.2-6.2C1181,88.6,1181.1,89,1181,89.6z"/>
	</g>
</g>
<g>
	<circle class="st4" cx="1292" cy="75" r="75"/>
	<g>
		<g>
			<path class="st5" d="M1298.2,15.8c-13.2,0-24.3,8.6-28.3,20.6c-7.5,1.6-13.5,6.9-16.2,13.8c-10,0.4-18.1,8.6-18.1,18.7
				s8,18.3,17.9,18.7l0,0h44.9V15.8C1298.5,15.8,1298.4,15.8,1298.2,15.8z"/>
			<path class="st6" d="M1327.6,41.9c-1.7-14.6-14.1-25.9-29.2-26v71.6h28.3l0,0c12.2-0.5,21.8-10.5,21.8-22.8
				C1348.7,52.7,1339.5,42.9,1327.6,41.9z"/>
		</g>
		<polygon class="st1" points="1302.1,87.5 1281.7,87.5 1272.7,110.1 1287.1,110.1 1278.3,134.1 1306.8,101.9 1292.5,101.9 		"/>
		<polygon class="st2" points="1302.1,87.5 1281.7,87.5 1281.7,87.6 1293.9,99.8 		"/>
	</g>
</g>
<g>
	<circle class="st4" cx="1444" cy="75" r="75"/>
	<g>
		<g>
			<path class="st5" d="M1450.2,28.3c-13.2,0-24.3,8.6-28.3,20.6c-7.5,1.6-13.5,6.9-16.2,13.8c-10,0.4-18.1,8.6-18.1,18.7
				s8,18.3,17.9,18.7l0,0h44.9V28.3C1450.5,28.3,1450.4,28.3,1450.2,28.3z"/>
			<path class="st6" d="M1479.6,54.3c-1.7-14.6-14.1-25.9-29.2-26v71.6h28.3l0,0c12.2-0.5,21.8-10.5,21.8-22.8
				C1500.7,65.2,1491.5,55.3,1479.6,54.3z"/>
		</g>
		<g>
			<path class="st7" d="M1483.6,89.3l-18.1,4.9l-1.5,0.5c-1.7,0.6-3.5,1.6-4.9,3c-4.9,4.9-4.9,12.7,0,17.6l25.7-25.7
				C1484.5,89.3,1484.1,89.2,1483.6,89.3z"/>
			<path class="st8" d="M1479.8,110.4l0.4-1.5l4.9-18.1c0.1-0.5,0-1-0.2-1.2l-25.7,25.7c4.9,4.9,12.7,4.9,17.6,0
				C1478.1,113.9,1479.1,112.1,1479.8,110.4z"/>
		</g>
		<path class="st9" d="M1485,90.8l-2.4,8.6c3-0.6,5.9-1.9,8.3-3.6l-6.2-6.2C1485,89.8,1485.1,90.2,1485,90.8z"/>
		<g>
			<path class="st7" d="M1429.5,109.6l-4.4-2.5l3.7-1c0.2,0,0.4-0.2,0.2-0.5l-0.6-2.2c0-0.2-0.2-0.4-0.5-0.2l-6.7,1.7l-5.6-3.2
				l5.6-3.2l6.9,1.9c0.2,0,0.4-0.1,0.5-0.2l0.6-2.2c0-0.2-0.1-0.4-0.2-0.5l-3.7-1l4.4-2.5c0.1-0.1,0.2-0.4,0.1-0.5l-1.1-2
				c-0.1-0.1-0.4-0.2-0.5-0.1l-4.4,2.5l1-3.7c0-0.2-0.1-0.4-0.2-0.5l-2.2-0.6c-0.2,0-0.4,0.1-0.5,0.2l-1.9,6.9l-5.5,3.2v-6.1l5-5
				c0.1-0.1,0.1-0.4,0-0.5l-1.9-1.9c-0.1-0.1-0.4-0.1-0.5,0l-2.9,2.7v-5.4c0-0.2-0.1-0.4-0.4-0.4h-2.4c-0.2,0-0.4,0.1-0.4,0.4v5.4
				l-2.7-2.7c-0.1-0.1-0.4-0.1-0.5,0l-1.6,1.6c-0.1,0.1-0.1,0.4,0,0.5l5,5v6.1l-5.4-3l-1.9-6.9c0-0.2-0.2-0.4-0.5-0.2l-2.2,0.6
				c-0.2,0-0.4,0.2-0.2,0.5l1,3.7l-4.6-2.6c-0.1-0.1-0.4,0-0.5,0.1l-1.1,2c-0.1,0.1,0,0.4,0.1,0.5l4.6,2.6l-3.7,1
				c-0.2,0-0.4,0.2-0.2,0.5l0.6,2.2c0,0.2,0.2,0.4,0.5,0.2l6.9-1.9l5.2,3.1l-5.2,3.1l-6.9-1.9c-0.2,0-0.4,0.1-0.5,0.2l-0.7,2.4
				c0,0.2,0.1,0.4,0.2,0.5l3.7,1l-4.5,2.7c-0.1,0.1-0.2,0.4-0.1,0.5l1.1,2c0.1,0.1,0.4,0.2,0.5,0.1l4.6-2.6l-1,3.7
				c0,0.2,0.1,0.4,0.2,0.5l2.2,0.6c0.2,0,0.4-0.1,0.5-0.2l1.9-6.9l5.2-3.1v6.4l-5,5c-0.1,0.1-0.1,0.4,0,0.5l1.6,1.6
				c0.1,0.1,0.4,0.1,0.5,0l2.7-2.7v5c0,0.2,0.1,0.4,0.4,0.4h2.5c0.2,0,0.4-0.1,0.4-0.4v-5l2.7,2.7c0.1,0.1,0.4,0.1,0.5,0l1.6-1.6
				c0.1-0.1,0.1-0.4,0-0.5l-5-5v-6.4l5.5,3.2l1.9,6.9c0,0.2,0.2,0.4,0.5,0.2l2.2-0.6c0.2,0,0.4-0.2,0.2-0.5l-1-3.7l4.4,2.5
				c0.1,0.1,0.4,0,0.5-0.1l1.1-2C1429.8,109.9,1429.7,109.6,1429.5,109.6z"/>
			<path class="st9" d="M1421.5,89.6l-2.1-2.1l0,0c0.1,0.1,0.1,0.2,0,0.4l-5,5v6.1l5.5-3.2L1421.5,89.6z M1401.4,99.4
				c1.2,0.4,2.6,0.5,3.9,0.6l0,0h1.2l-2.4-1.4L1401.4,99.4z M1405.9,95.9l5.2,3.1v-2.7l-7.1-7.1L1405.9,95.9z M1414.2,88.5l2.7-2.7
				l-2.7-2.7c0,0,0,0,0,0.1V88.5z M1437.3,99.9l-8.8-8.8l1.1,2c0.1,0.1,0,0.4-0.1,0.5l-4.4,2.5l3.7,1c0.2,0,0.4,0.2,0.2,0.5
				l-0.6,2.2h8.8V99.9z M1426.8,91.7l-2.2-2.2l0,0c0.1,0.1,0.1,0.2,0.1,0.4l-1,3.7L1426.8,91.7z M1418.7,99.9h8.2l-5.6-1.5
				L1418.7,99.9z"/>
		</g>
	</g>
</g>
<path class="st10" d="M1426.4,77.8c0-3.3,1-6.5,3.1-9.9c2.1-3.3,5.1-6.1,9.1-8.3c4-2.2,8.7-3.3,14-3.3c5,0,9.3,0.9,13.1,2.7
	c3.8,1.8,6.7,4.3,8.8,7.5c2.1,3.1,3.1,6.6,3.1,10.3c0,2.9-0.6,5.5-1.8,7.6c-1.2,2.2-2.6,4.1-4.2,5.7c-1.6,1.6-4.5,4.3-8.8,8
	c-1.2,1.1-2.1,2-2.8,2.8c-0.7,0.8-1.2,1.5-1.6,2.2c-0.3,0.7-0.6,1.3-0.8,2c-0.2,0.7-0.5,1.8-0.8,3.5c-0.7,3.6-2.7,5.3-6.1,5.3
	c-1.8,0-3.3-0.6-4.5-1.7c-1.2-1.2-1.8-2.9-1.8-5.2c0-2.9,0.4-5.4,1.3-7.5c0.9-2.1,2.1-4,3.5-5.5c1.5-1.6,3.5-3.5,6-5.7
	c2.2-1.9,3.8-3.4,4.7-4.3c1-1,1.8-2.1,2.5-3.3c0.7-1.2,1-2.5,1-3.9c0-2.7-1-5-3.1-6.9c-2-1.9-4.7-2.8-7.9-2.8
	c-3.8,0-6.5,0.9-8.3,2.8c-1.8,1.9-3.3,4.7-4.5,8.4c-1.2,3.9-3.4,5.8-6.6,5.8c-1.9,0-3.5-0.7-4.9-2
	C1427,80.8,1426.4,79.4,1426.4,77.8z M1451.4,134.1c-2.1,0-3.9-0.7-5.5-2c-1.6-1.4-2.3-3.2-2.3-5.7c0-2.2,0.8-4,2.3-5.4
	c1.5-1.5,3.4-2.2,5.5-2.2c2.2,0,4,0.7,5.4,2.2c1.5,1.5,2.2,3.3,2.2,5.4c0,2.4-0.8,4.3-2.3,5.6
	C1455.2,133.4,1453.4,134.1,1451.4,134.1z"/>
<g>
	<circle class="st4" cx="1596" cy="75" r="75"/>
	<g>
		<g>
			<path class="st5" d="M1602.2,27c-13.2,0-24.3,8.6-28.3,20.6c-7.5,1.6-13.5,6.9-16.2,13.8c-10,0.4-18.1,8.6-18.1,18.7
				s8,18.3,17.9,18.7l0,0h44.9V27C1602.5,27,1602.4,27,1602.2,27z"/>
			<path class="st6" d="M1631.6,53.1c-1.7-14.6-14.1-25.9-29.2-26v71.6h28.3l0,0c12.2-0.5,21.8-10.5,21.8-22.8
				C1652.7,63.9,1643.5,54.1,1631.6,53.1z"/>
		</g>
		<g>
			<path class="st7" d="M1578.2,84.3l-18.1,4.9l-1.6,0.5c-1.7,0.6-3.5,1.6-4.9,3c-4.9,4.9-4.9,12.7,0,17.6l25.7-25.7
				C1579.1,84.3,1578.7,84.2,1578.2,84.3z"/>
			<path class="st8" d="M1574.2,105.4l0.4-1.5l5-18.1c0.1-0.5,0-1-0.2-1.2l-25.7,25.7c4.9,4.9,12.7,4.9,17.6,0
				C1572.7,108.9,1573.7,107.1,1574.2,105.4z"/>
		</g>
		<g>
			<path class="st7" d="M1635.6,88.1l-18.1,4.9l-1.5,0.5c-1.7,0.6-3.5,1.6-4.9,3c-4.9,4.9-4.9,12.7,0,17.6l25.7-25.7
				C1636.5,88.1,1636.1,88,1635.6,88.1z"/>
			<path class="st8" d="M1631.8,109.1l0.4-1.5l4.9-18.1c0.1-0.5,0-1-0.2-1.2l-25.7,25.7c4.9,4.9,12.7,4.9,17.6,0
				C1630.1,112.6,1631.1,110.9,1631.8,109.1z"/>
		</g>
		<g>
			<path class="st7" d="M1596.9,104.7l-11,3l-0.9,0.2c-1.1,0.4-2.1,1-3,1.9c-3,3-3,7.7,0,10.7l15.6-15.6
				C1597.4,104.5,1597.1,104.5,1596.9,104.7z"/>
			<path class="st8" d="M1594.5,117.4l0.2-1l3-11c0.1-0.4,0-0.6-0.1-0.7l-15.7,15.7c3,3,7.7,3,10.7,0
				C1593.5,119.5,1594.1,118.5,1594.5,117.4z"/>
		</g>
		<path class="st9" d="M1579.6,85.8l-3.5,13h17.4l-14.2-14.2C1579.6,84.8,1579.7,85.2,1579.6,85.8z"/>
		<path class="st9" d="M1637,89.6l-2.4,8.6c3-0.6,5.9-1.9,8.3-3.6l-6.2-6.2C1637,88.6,1637.1,89,1637,89.6z"/>
	</g>
</g>
<g>
	<circle class="st4" cx="1748" cy="75" r="75"/>
	<g>
		<path class="st5" d="M1754.2,23.3c-13.2,0-24.3,8.6-28.3,20.6c-7.5,1.6-13.5,6.9-16.2,13.8c-10,0.4-18.1,8.6-18.1,18.7
			s8,18.3,17.9,18.7l0,0h44.9V23.3C1754.5,23.3,1754.4,23.3,1754.2,23.3z"/>
		<path class="st6" d="M1783.6,49.3c-1.7-14.6-14.1-25.9-29.2-26v71.6h28.3l0,0c12.2-0.5,21.8-10.5,21.8-22.8
			C1804.7,60.2,1795.5,50.3,1783.6,49.3z"/>
		<path class="st7" d="M1753.6,119.9l-2.2-1.2l1.9-0.5c0.1,0,0.1-0.1,0.1-0.2l-0.4-1.1c0-0.1-0.1-0.1-0.2-0.1l-3.5,0.9l-2.6-1.6
			l2.9-1.6l3.5,0.9c0.1,0,0.2,0,0.2-0.1l0.4-1.1c0-0.1,0-0.2-0.1-0.2l-1.9-0.5l2.2-1.2c0.1,0,0.1-0.1,0.1-0.2l-0.6-1
			c0-0.1-0.1-0.1-0.2-0.1l-2.2,1.2l0.5-1.9c0-0.1,0-0.2-0.1-0.2l-1.1-0.2c-0.1,0-0.2,0-0.2,0.1l-0.9,3.5l-2.9,1.6v-3.1l2.5-2.5
			c0.1-0.1,0.1-0.2,0-0.2l-0.9-0.9c-0.1-0.1-0.2-0.1-0.2,0l-1.4,1.4v-2.7c0-0.1-0.1-0.2-0.2-0.2h-1.2c-0.1,0-0.2,0.1-0.2,0.2v2.7
			l-1.4-1.4c-0.1-0.1-0.2-0.1-0.2,0l-0.9,0.9c-0.1,0.1-0.1,0.2,0,0.2l2.5,2.5v3.1l-2.9-1.7l-0.9-3.5c0-0.1-0.1-0.1-0.2-0.1l-1.1,0.4
			c-0.1,0-0.1,0.1-0.1,0.2l0.5,1.9l-2.4-1.4c-0.1,0-0.2,0-0.2,0.1l-0.6,1c0,0.1,0,0.2,0.1,0.2l2.4,1.4l-1.9,0.5
			c-0.1,0-0.1,0.1-0.1,0.2l0.4,1.1c0,0.1,0.1,0.1,0.2,0.1l3.5-0.9l2.7,1.5l-2.7,1.5l-3.5-0.9c-0.1,0-0.2,0-0.2,0.1l-0.4,1.1
			c0,0.1,0,0.2,0.1,0.2l1.9,0.5l-2.4,1.5c-0.1,0-0.1,0.1-0.1,0.2l0.6,1c0,0.1,0.1,0.1,0.2,0.1l2.4-1.4l-0.5,1.9c0,0.1,0,0.2,0.1,0.2
			l1.1,0.2c0.1,0,0.2,0,0.2-0.1l0.9-3.5l2.7-1.5v3.2l-2.5,2.5c-0.1,0.1-0.1,0.2,0,0.2l0.9,0.9c0.1,0.1,0.2,0.1,0.2,0l1.4-1.4v2.6
			c0,0.1,0.1,0.2,0.2,0.2h1.2c0.1,0,0.2-0.1,0.2-0.2v-2.6l1.4,1.4c0.1,0.1,0.2,0.1,0.2,0l0.9-0.9c0.1-0.1,0.1-0.2,0-0.2l-2.5-2.5
			v-3.2l2.9,1.6l0.9,3.5c0,0.1,0.1,0.1,0.2,0.1l1.1-0.2c0.1,0,0.1-0.1,0.1-0.2l-0.5-1.9l2.2,1.2c0.1,0,0.2,0,0.2-0.1l0.6-1
			C1753.7,120.1,1753.7,120,1753.6,119.9z"/>
		<g>
			<path class="st7" d="M1733.9,104.7l-4.4-2.5l3.7-1c0.2,0,0.4-0.2,0.2-0.5l-0.6-2.2c0-0.2-0.2-0.4-0.5-0.2l-6.9,1.9l-5.6-3.2
				l5.6-3.2l6.9,1.9c0.2,0,0.4-0.1,0.5-0.2l0.6-2.2c0-0.2-0.1-0.4-0.2-0.5l-3.7-1l4.4-2.5c0.1-0.1,0.2-0.4,0.1-0.5l-1.2-2.2
				c0-0.2-0.2-0.2-0.5-0.1l-4.4,2.5l1-3.7c0-0.2-0.1-0.4-0.2-0.5l-2.2-0.6c-0.2,0-0.4,0.1-0.5,0.2l-1.9,6.9l-5.6,3.2V88l5-5
				c0.1-0.1,0.1-0.4,0-0.5l-1.6-1.6c-0.1-0.1-0.4-0.1-0.5,0l-2.7,2.6v-5.4c0-0.2-0.1-0.4-0.4-0.4h-2.4c-0.2,0-0.4,0.1-0.4,0.4v5.4
				l-2.7-2.7c-0.1-0.1-0.4-0.1-0.5,0l-1.6,1.6c-0.1,0.1-0.1,0.4,0,0.5l5,5v6.1l-5.4-3l-1.9-6.9c0-0.2-0.2-0.4-0.5-0.2l-2.2,0.6
				c-0.2,0-0.4,0.2-0.2,0.5l1,3.7l-4.6-2.6c-0.1-0.1-0.4,0-0.5,0.1l-1.1,2c-0.1,0.1,0,0.4,0.1,0.5l4.6,2.6l-3.7,1
				c-0.2,0-0.4,0.2-0.2,0.5l0.6,2.2c0,0.2,0.2,0.4,0.5,0.2l6.9-1.9l5.2,3.1l-5.2,3.1l-6.9-1.9c-0.2,0-0.4,0.1-0.5,0.2l-0.6,2.2
				c0,0.2,0.1,0.4,0.2,0.5l3.7,1l-4.6,2.9c-0.1,0.1-0.2,0.4-0.1,0.5l1.1,2c0.1,0.1,0.4,0.2,0.5,0.1l4.6-2.6l-1,3.7
				c0,0.2,0.1,0.4,0.2,0.5l2.2,0.6c0.2,0,0.4-0.1,0.5-0.2l1.9-6.9l5.2-3.1v6.4l-5,5c-0.1,0.1-0.1,0.4,0,0.5l1.6,1.6
				c0.1,0.1,0.4,0.1,0.5,0l2.7-2.7v5c0,0.2,0.1,0.4,0.4,0.4h2.4c0.2,0,0.4-0.1,0.4-0.4v-5l2.7,2.7c0.1,0.1,0.4,0.1,0.5,0l1.6-1.6
				c0.1-0.1,0.1-0.4,0-0.5l-5-5v-6.4l5.6,3.2l1.9,6.9c0,0.2,0.2,0.4,0.5,0.2l2.2-0.6c0.2,0,0.4-0.2,0.2-0.5l-1-3.7l4.4,2.5
				c0.1,0.1,0.4,0,0.5-0.1l1.1-2C1734.2,104.9,1734,104.7,1733.9,104.7z"/>
			<path class="st9" d="M1725.8,84.6l-2.1-2.1l0,0c0.1,0.1,0.1,0.2,0,0.4l-5,5v6.1l5.6-3.2L1725.8,84.6z M1705.8,94.4
				c1.2,0.4,2.6,0.5,3.9,0.6l0,0h1.2l-2.4-1.4L1705.8,94.4z M1710.3,90.9l5.2,3.1v-2.7l-7.1-7.1L1710.3,90.9z M1718.6,83.5l2.7-2.7
				l-2.7-2.7c0,0,0,0,0,0.1V83.5z M1741.6,94.9l-8.8-8.7l1.1,2c0.1,0.1,0,0.4-0.1,0.5l-4.4,2.5l3.7,1c0.2,0,0.4,0.2,0.2,0.5
				l-0.6,2.2C1732.8,94.9,1741.6,94.9,1741.6,94.9z M1731.2,86.7l-2.2-2.2l0,0c0.1,0.1,0.1,0.2,0.1,0.4l-1,3.7L1731.2,86.7z
				 M1723.1,94.9h8.2l-5.6-1.5L1723.1,94.9z"/>
		</g>
		<path class="st7" d="M1791.9,104.7l-4.4-2.5l3.7-1c0.2,0,0.4-0.2,0.2-0.5l-0.6-2.2c0-0.2-0.2-0.4-0.5-0.2l-6.9,1.9l-5.6-3.2
			l5.6-3.2l6.9,1.9c0.2,0,0.4-0.1,0.5-0.2l0.6-2.2c0-0.2-0.1-0.4-0.2-0.5l-3.7-1l4.4-2.5c0.1-0.1,0.2-0.4,0.1-0.5l-1.1-2
			c-0.1-0.1-0.4-0.2-0.5-0.1l-4.4,2.5l1-3.7c0-0.2-0.1-0.4-0.2-0.5l-2.2-0.6c-0.2,0-0.4,0.1-0.5,0.2l-1.9,6.9l-5.6,3.2v-6.1l5-5
			c0.1-0.1,0.1-0.4,0-0.5l-1.6-1.6c-0.1-0.1-0.4-0.1-0.5,0l-2.9,2.4v-5.4c0-0.2-0.1-0.4-0.4-0.4h-2.4c-0.2,0-0.4,0.1-0.4,0.4v5.4
			l-2.7-2.7c-0.1-0.1-0.4-0.1-0.5,0l-1.6,1.6c-0.1,0.1-0.1,0.4,0,0.5l5,5v6.1l-5.4-3l-1.9-6.9c0-0.2-0.2-0.4-0.5-0.2l-2.2,0.6
			c-0.2,0-0.4,0.2-0.2,0.5l1,3.7l-4.6-2.6c-0.1-0.1-0.4,0-0.5,0.1l-1.1,2c-0.1,0.1,0,0.4,0.1,0.5l4.6,2.6l-3.7,1
			c-0.2,0-0.4,0.2-0.2,0.5l0.6,2.2c0,0.2,0.2,0.4,0.5,0.2l6.9-1.9l5.2,3.1l-5.2,3.1l-6.9-1.9c-0.2,0-0.4,0.1-0.5,0.2l-0.6,2.2
			c0,0.2,0.1,0.4,0.2,0.5l3.7,1l-4.6,2.9c-0.1,0.1-0.2,0.4-0.1,0.5l1.1,2c0.1,0.1,0.4,0.2,0.5,0.1l4.6-2.6l-1,3.7
			c0,0.2,0.1,0.4,0.2,0.5l2.2,0.6c0.2,0,0.4-0.1,0.5-0.2l1.9-6.9l5.2-3.1v6.4l-5,5c-0.1,0.1-0.1,0.4,0,0.5l1.6,1.6
			c0.1,0.1,0.4,0.1,0.5,0l2.7-2.7v5c0,0.2,0.1,0.4,0.4,0.4h2.4c0.2,0,0.4-0.1,0.4-0.4v-5l2.7,2.7c0.1,0.1,0.4,0.1,0.5,0l1.6-1.6
			c0.1-0.1,0.1-0.4,0-0.5l-5-5v-6.4l5.6,3.2l1.9,6.9c0,0.2,0.2,0.4,0.5,0.2l2.2-0.6c0.2,0,0.4-0.2,0.2-0.5l-1-3.7l4.4,2.5
			c0.1,0.1,0.4,0,0.5-0.1l1.1-2C1792.1,104.9,1792,104.7,1791.9,104.7z"/>
		<path class="st9" d="M1781,94.9h1.7l0,0c0.7,0,1.4-0.1,2.1-0.2c0.6-0.1,1.4-0.2,2-0.4l0,0l-3.2-0.9L1781,94.9z M1789.1,86.7
			l-2.2-2.2l0,0c0.1,0.1,0.1,0.2,0.1,0.4l-1,3.7L1789.1,86.7z M1783.8,84.6l-2.1-2.1l0,0c0,0.1,0,0.1,0,0.2c0,0.1,0,0.1-0.1,0.2
			l-5,5v6.1l5.6-3.2L1783.8,84.6z M1761.5,94.9h7.5l-2.4-1.4L1761.5,94.9z M1790.9,86.2l1.1,2c0.1,0.1,0,0.4-0.1,0.5l-4.4,2.5l3.7,1
			c0.2,0,0.4,0.2,0.2,0.5l0,0c0.6-0.2,1.2-0.6,1.9-1l0,0c0.6-0.4,1.2-0.7,1.7-1.1L1790.9,86.2z M1776.5,83.5l2.7-2.7l-2.7-2.7
			c0,0,0,0,0,0.1V83.5z M1768.2,90.9l5.2,3.1v-2.7l-7.1-7.1L1768.2,90.9z"/>
	</g>
</g>
<path class="st10" d="M1736.4,77.8c0-3.3,1-6.5,3.1-9.9c2.1-3.3,5.1-6.1,9.1-8.3c4-2.2,8.7-3.3,14-3.3c5,0,9.3,0.9,13.1,2.7
	c3.8,1.8,6.7,4.3,8.8,7.5c2.1,3.1,3.1,6.6,3.1,10.3c0,2.9-0.6,5.5-1.8,7.6c-1.2,2.2-2.6,4.1-4.2,5.7c-1.6,1.6-4.5,4.3-8.8,8
	c-1.2,1.1-2.1,2-2.8,2.8c-0.7,0.8-1.2,1.5-1.6,2.2c-0.3,0.7-0.6,1.3-0.8,2c-0.2,0.7-0.5,1.8-0.8,3.5c-0.7,3.6-2.7,5.3-6.1,5.3
	c-1.8,0-3.3-0.6-4.5-1.7c-1.2-1.2-1.8-2.9-1.8-5.2c0-2.9,0.4-5.4,1.3-7.5c0.9-2.1,2.1-4,3.5-5.5c1.5-1.6,3.5-3.5,6-5.7
	c2.2-1.9,3.8-3.4,4.7-4.3c1-1,1.8-2.1,2.5-3.3c0.7-1.2,1-2.5,1-3.9c0-2.7-1-5-3.1-6.9c-2-1.9-4.7-2.8-7.9-2.8
	c-3.8,0-6.5,0.9-8.3,2.8c-1.8,1.9-3.3,4.7-4.5,8.4c-1.2,3.9-3.4,5.8-6.6,5.8c-1.9,0-3.5-0.7-4.9-2
	C1737,80.8,1736.4,79.4,1736.4,77.8z M1761.4,134.1c-2.1,0-3.9-0.7-5.5-2c-1.6-1.4-2.3-3.2-2.3-5.7c0-2.2,0.8-4,2.3-5.4
	c1.5-1.5,3.4-2.2,5.5-2.2c2.2,0,4,0.7,5.4,2.2c1.5,1.5,2.2,3.3,2.2,5.4c0,2.4-0.8,4.3-2.3,5.6
	C1765.2,133.4,1763.4,134.1,1761.4,134.1z"/>
<g>
	<circle class="st4" cx="1900" cy="75" r="75"/>
	<g>
		<g>
			<path class="st5" d="M1906.2,15.8c-13.2,0-24.3,8.6-28.3,20.6c-7.5,1.6-13.5,6.9-16.2,13.8c-10,0.4-18.1,8.6-18.1,18.7
				s8,18.3,17.9,18.7l0,0h44.9V15.8C1906.5,15.8,1906.4,15.8,1906.2,15.8z"/>
			<path class="st6" d="M1935.6,41.9c-1.7-14.6-14.1-25.9-29.2-26v71.6h28.3l0,0c12.2-0.5,21.8-10.5,21.8-22.8
				C1956.7,52.7,1947.5,42.9,1935.6,41.9z"/>
		</g>
		<polygon class="st1" points="1910.1,87.5 1889.7,87.5 1880.7,110.1 1895.1,110.1 1886.3,134.1 1914.8,101.9 1900.5,101.9 		"/>
		<polygon class="st2" points="1910.1,87.5 1889.7,87.5 1889.7,87.6 1901.9,99.8 		"/>
	</g>
</g>
<path class="st10" d="M1886.4,77.8c0-3.3,1-6.5,3.1-9.9c2.1-3.3,5.1-6.1,9.1-8.3c4-2.2,8.7-3.3,14-3.3c5,0,9.3,0.9,13.1,2.7
	c3.8,1.8,6.7,4.3,8.8,7.5c2.1,3.1,3.1,6.6,3.1,10.3c0,2.9-0.6,5.5-1.8,7.6c-1.2,2.2-2.6,4.1-4.2,5.7c-1.6,1.6-4.5,4.3-8.8,8
	c-1.2,1.1-2.1,2-2.8,2.8c-0.7,0.8-1.2,1.5-1.6,2.2c-0.3,0.7-0.6,1.3-0.8,2c-0.2,0.7-0.5,1.8-0.8,3.5c-0.7,3.6-2.7,5.3-6.1,5.3
	c-1.8,0-3.3-0.6-4.5-1.7c-1.2-1.2-1.8-2.9-1.8-5.2c0-2.9,0.4-5.4,1.3-7.5c0.9-2.1,2.1-4,3.5-5.5c1.5-1.6,3.5-3.5,6-5.7
	c2.2-1.9,3.8-3.4,4.7-4.3c1-1,1.8-2.1,2.5-3.3c0.7-1.2,1-2.5,1-3.9c0-2.7-1-5-3.1-6.9c-2-1.9-4.7-2.8-7.9-2.8
	c-3.8,0-6.5,0.9-8.3,2.8c-1.8,1.9-3.3,4.7-4.5,8.4c-1.2,3.9-3.4,5.8-6.6,5.8c-1.9,0-3.5-0.7-4.9-2
	C1887,80.8,1886.4,79.4,1886.4,77.8z M1911.4,134.1c-2.1,0-3.9-0.7-5.5-2c-1.6-1.4-2.3-3.2-2.3-5.7c0-2.2,0.8-4,2.3-5.4
	c1.5-1.5,3.4-2.2,5.5-2.2c2.2,0,4,0.7,5.4,2.2c1.5,1.5,2.2,3.3,2.2,5.4c0,2.4-0.8,4.3-2.3,5.6
	C1915.2,133.4,1913.4,134.1,1911.4,134.1z"/>
<g>
	<circle class="st4" cx="2052" cy="75" r="75"/>
</g>
<path class="st11" d="M2019.3,57.3c0-4.2,1.4-8.5,4.1-12.8c2.7-4.3,6.7-7.9,11.9-10.8c5.2-2.8,11.3-4.3,18.2-4.3
	c6.4,0,12.1,1.2,17.1,3.6c4.9,2.4,8.7,5.6,11.4,9.7c2.7,4.1,4,8.5,4,13.3c0,3.8-0.8,7.1-2.3,9.9c-1.5,2.8-3.4,5.3-5.5,7.4
	c-2.1,2.1-5.9,5.5-11.4,10.4c-1.5,1.4-2.7,2.6-3.6,3.6c-0.9,1-1.6,2-2,2.9c-0.4,0.9-0.8,1.7-1,2.6c-0.2,0.9-0.6,2.4-1.1,4.6
	c-0.8,4.6-3.5,6.9-7.9,6.9c-2.3,0-4.3-0.8-5.8-2.3c-1.6-1.5-2.4-3.8-2.4-6.7c0-3.7,0.6-7,1.7-9.7c1.2-2.7,2.7-5.1,4.6-7.2
	c1.9-2.1,4.5-4.5,7.7-7.4c2.8-2.5,4.9-4.4,6.2-5.6c1.3-1.3,2.3-2.7,3.2-4.2c0.9-1.6,1.3-3.2,1.3-5.1c0-3.6-1.3-6.6-4-9
	c-2.6-2.4-6.1-3.7-10.2-3.7c-4.9,0-8.5,1.2-10.8,3.7c-2.3,2.5-4.3,6.1-5.9,10.9c-1.5,5-4.4,7.5-8.6,7.5c-2.5,0-4.6-0.9-6.3-2.6
	C2020.2,61.3,2019.3,59.4,2019.3,57.3z M2051.8,130.4c-2.7,0-5.1-0.9-7.1-2.6c-2-1.8-3-4.2-3-7.4c0-2.8,1-5.2,2.9-7.1
	c2-1.9,4.4-2.9,7.2-2.9c2.8,0,5.2,1,7.1,2.9c1.9,1.9,2.9,4.3,2.9,7.1c0,3.1-1,5.6-3,7.3C2056.8,129.5,2054.5,130.4,2051.8,130.4z"/>
<path class="st10" d="M1586.4,77.8c0-3.3,1-6.5,3.1-9.9c2.1-3.3,5.1-6.1,9.1-8.3c4-2.2,8.7-3.3,14-3.3c5,0,9.3,0.9,13.1,2.7
	c3.8,1.8,6.7,4.3,8.8,7.5c2.1,3.1,3.1,6.6,3.1,10.3c0,2.9-0.6,5.5-1.8,7.6c-1.2,2.2-2.6,4.1-4.2,5.7c-1.6,1.6-4.5,4.3-8.8,8
	c-1.2,1.1-2.1,2-2.8,2.8c-0.7,0.8-1.2,1.5-1.6,2.2c-0.3,0.7-0.6,1.3-0.8,2c-0.2,0.7-0.5,1.8-0.8,3.5c-0.7,3.6-2.7,5.3-6.1,5.3
	c-1.8,0-3.3-0.6-4.5-1.7c-1.2-1.2-1.8-2.9-1.8-5.2c0-2.9,0.4-5.4,1.3-7.5c0.9-2.1,2.1-4,3.5-5.5c1.5-1.6,3.5-3.5,6-5.7
	c2.2-1.9,3.8-3.4,4.7-4.3c1-1,1.8-2.1,2.5-3.3c0.7-1.2,1-2.5,1-3.9c0-2.7-1-5-3.1-6.9c-2-1.9-4.7-2.8-7.9-2.8
	c-3.8,0-6.5,0.9-8.3,2.8c-1.8,1.9-3.3,4.7-4.5,8.4c-1.2,3.9-3.4,5.8-6.6,5.8c-1.9,0-3.5-0.7-4.9-2
	C1587,80.8,1586.4,79.4,1586.4,77.8z M1611.4,134.1c-2.1,0-3.9-0.7-5.5-2c-1.6-1.4-2.3-3.2-2.3-5.7c0-2.2,0.8-4,2.3-5.4
	c1.5-1.5,3.4-2.2,5.5-2.2c2.2,0,4,0.7,5.4,2.2c1.5,1.5,2.2,3.3,2.2,5.4c0,2.4-0.8,4.3-2.3,5.6
	C1615.2,133.4,1613.4,134.1,1611.4,134.1z"/>
</svg>
